<svg width="32" height="176" viewBox="0 0 32 176" fill="none" xmlns="http://www.w3.org/2000/svg">
<mask id="mask0" mask-type="alpha" maskUnits="userSpaceOnUse" x="0" y="0" width="32" height="32">
<circle cx="16" cy="16" r="16" fill="#C4C4C4"/>
</mask>
<g mask="url(#mask0)">
<rect x="-5.75" y="0.25" width="44.3" height="31.5" rx="1.75" fill="white" stroke="#F5F5F5" stroke-width="0.5"/>
<mask id="mask1" mask-type="alpha" maskUnits="userSpaceOnUse" x="-6" y="0" width="45" height="32">
<rect x="-5.75" y="0.25" width="44.3" height="31.5" rx="1.75" fill="white" stroke="white" stroke-width="0.5"/>
</mask>
<g mask="url(#mask1)">
<path fill-rule="evenodd" clip-rule="evenodd" d="M-6 21.3337H38.8V10.667H-6V21.3337Z" fill="#0C47B7"/>
<path fill-rule="evenodd" clip-rule="evenodd" d="M-6 31.9997H38.8V21.333H-6V31.9997Z" fill="#E53B35"/>
</g>
</g>
<path d="M16 140C24.8366 140 32 132.837 32 124C32 115.163 24.8366 108 16 108C7.16344 108 0 115.163 0 124C0 132.837 7.16344 140 16 140Z" fill="#D80027"/>
<path d="M8.75625 117.736L10.1375 121.986H14.6062L10.9937 124.618L12.375 128.868L8.75625 126.243L5.1375 128.868L6.525 124.618L2.90625 121.986H7.375L8.75625 117.736Z" fill="#FFDA44"/>
<path d="M18.9699 132.781L17.9137 131.481L16.3512 132.087L17.2574 130.681L16.2012 129.374L17.8199 129.806L18.7324 128.399L18.8199 130.074L20.4449 130.506L18.8762 131.106L18.9699 132.781Z" fill="#FFDA44"/>
<path d="M21.0699 128.968L21.5699 127.368L20.2012 126.399L21.8762 126.374L22.3699 124.774L22.9137 126.362L24.5887 126.343L23.2449 127.343L23.7824 128.931L22.4137 127.962L21.0699 128.968Z" fill="#FFDA44"/>
<path d="M23.8988 119.743L23.1613 121.249L24.3613 122.418L22.7051 122.18L21.9676 123.68L21.6801 122.03L20.0176 121.793L21.5051 121.012L21.2176 119.355L22.4176 120.524L23.8988 119.743Z" fill="#FFDA44"/>
<path d="M19.0129 115.181L18.8879 116.849L20.4441 117.481L18.8129 117.881L18.6941 119.556L17.8129 118.131L16.1816 118.531L17.2629 117.249L16.3754 115.831L17.9316 116.462L19.0129 115.181Z" fill="#FFDA44"/>
<path d="M0 159.999C0 161.957 0.352063 163.831 0.995188 165.565L16 166.956L31.0048 165.565C31.6479 163.831 32 161.957 32 159.999C32 158.042 31.6479 156.168 31.0048 154.434L16 153.043L0.995188 154.434C0.352063 156.168 0 158.042 0 159.999Z" fill="#FFDA44"/>
<path d="M31.0038 154.435C28.7431 148.342 22.8784 144 15.999 144C9.11952 144 3.25483 148.342 0.994141 154.435H31.0038Z" fill="#D80027"/>
<path d="M0.994141 165.565C3.25483 171.658 9.11952 176 15.999 176C22.8784 176 28.7431 171.658 31.0038 165.565H0.994141Z" fill="#D80027"/>
<mask id="mask2" mask-type="alpha" maskUnits="userSpaceOnUse" x="0" y="72" width="32" height="32">
<circle cx="16" cy="88" r="16" fill="#C4C4C4"/>
</mask>
<g mask="url(#mask2)">
<rect x="-5.75" y="72.25" width="44.3" height="31.5" rx="1.75" fill="white" stroke="#F5F5F5" stroke-width="0.5"/>
<mask id="mask3" mask-type="alpha" maskUnits="userSpaceOnUse" x="-6" y="72" width="45" height="32">
<rect x="-5.75" y="72.25" width="44.3" height="31.5" rx="1.75" fill="white" stroke="white" stroke-width="0.5"/>
</mask>
<g mask="url(#mask3)">
<path fill-rule="evenodd" clip-rule="evenodd" d="M-6 82.6667H38.8V72H-6V82.6667Z" fill="#38BB56"/>
<path fill-rule="evenodd" clip-rule="evenodd" d="M-6 104H38.8V93.333H-6V104Z" fill="#DE1B27"/>
<path fill-rule="evenodd" clip-rule="evenodd" d="M-3.53385 80.5332C-3.71795 80.5332 -3.86719 80.6824 -3.86719 80.8665V82.3332C-3.86719 82.5173 -3.71795 82.6665 -3.53385 82.6665H-2.06719C-1.88309 82.6665 -1.73385 82.5173 -1.73385 82.3332V80.8665C-1.73385 80.6824 -1.88309 80.5332 -2.06719 80.5332H-3.53385ZM0.732863 80.5332C0.548769 80.5332 0.39953 80.6824 0.39953 80.8665V82.3332C0.39953 82.5173 0.548769 82.6665 0.732863 82.6665H2.19953C2.38362 82.6665 2.53286 82.5173 2.53286 82.3332V80.8665C2.53286 80.6824 2.38362 80.5332 2.19953 80.5332H0.732863ZM4.66609 80.8665C4.66609 80.6824 4.81533 80.5332 4.99942 80.5332H6.46609C6.65018 80.5332 6.79942 80.6824 6.79942 80.8665V82.3332C6.79942 82.5173 6.65018 82.6665 6.46609 82.6665H4.99942C4.81533 82.6665 4.66609 82.5173 4.66609 82.3332V80.8665ZM9.26614 80.5332C9.08204 80.5332 8.93281 80.6824 8.93281 80.8665V82.3332C8.93281 82.5173 9.08204 82.6665 9.26614 82.6665H10.7328C10.9169 82.6665 11.0661 82.5173 11.0661 82.3332V80.8665C11.0661 80.6824 10.9169 80.5332 10.7328 80.5332H9.26614ZM13.1995 80.8665C13.1995 80.6824 13.3488 80.5332 13.5329 80.5332H14.9995C15.1836 80.5332 15.3329 80.6824 15.3329 80.8665V82.3332C15.3329 82.5173 15.1836 82.6665 14.9995 82.6665H13.5329C13.3488 82.6665 13.1995 82.5173 13.1995 82.3332V80.8665ZM17.7994 80.5332C17.6153 80.5332 17.4661 80.6824 17.4661 80.8665V82.3332C17.4661 82.5173 17.6153 82.6665 17.7994 82.6665H19.2661C19.4502 82.6665 19.5994 82.5173 19.5994 82.3332V80.8665C19.5994 80.6824 19.4502 80.5332 19.2661 80.5332H17.7994ZM21.7328 80.8665C21.7328 80.6824 21.8821 80.5332 22.0662 80.5332H23.5328C23.7169 80.5332 23.8661 80.6824 23.8661 80.8665V82.3332C23.8661 82.5173 23.7169 82.6665 23.5328 82.6665H22.0662C21.8821 82.6665 21.7328 82.5173 21.7328 82.3332V80.8665ZM26.3329 80.5332C26.1488 80.5332 25.9995 80.6824 25.9995 80.8665V82.3332C25.9995 82.5173 26.1488 82.6665 26.3329 82.6665H27.7995C27.9836 82.6665 28.1329 82.5173 28.1329 82.3332V80.8665C28.1329 80.6824 27.9836 80.5332 27.7995 80.5332H26.3329ZM30.2661 80.8665C30.2661 80.6824 30.4153 80.5332 30.5994 80.5332H32.0661C32.2502 80.5332 32.3994 80.6824 32.3994 80.8665V82.3332C32.3994 82.5173 32.2502 82.6665 32.0661 82.6665H30.5994C30.4153 82.6665 30.2661 82.5173 30.2661 82.3332V80.8665ZM34.8661 80.5332C34.682 80.5332 34.5328 80.6824 34.5328 80.8665V82.3332C34.5328 82.5173 34.682 82.6665 34.8661 82.6665H36.3328C36.5169 82.6665 36.6661 82.5173 36.6661 82.3332V80.8665C36.6661 80.6824 36.5169 80.5332 36.3328 80.5332H34.8661ZM-3.86719 93.6665C-3.86719 93.4824 -3.71795 93.3332 -3.53385 93.3332H-2.06719C-1.88309 93.3332 -1.73385 93.4824 -1.73385 93.6665V95.1332C-1.73385 95.3173 -1.88309 95.4665 -2.06719 95.4665H-3.53385C-3.71795 95.4665 -3.86719 95.3173 -3.86719 95.1332V93.6665ZM0.732863 93.3332C0.548769 93.3332 0.39953 93.4824 0.39953 93.6665V95.1332C0.39953 95.3173 0.548769 95.4665 0.732863 95.4665H2.19953C2.38362 95.4665 2.53286 95.3173 2.53286 95.1332V93.6665C2.53286 93.4824 2.38362 93.3332 2.19953 93.3332H0.732863ZM4.66609 93.6665C4.66609 93.4824 4.81533 93.3332 4.99942 93.3332H6.46609C6.65018 93.3332 6.79942 93.4824 6.79942 93.6665V95.1332C6.79942 95.3173 6.65018 95.4665 6.46609 95.4665H4.99942C4.81533 95.4665 4.66609 95.3173 4.66609 95.1332V93.6665ZM9.26614 93.3332C9.08204 93.3332 8.93281 93.4824 8.93281 93.6665V95.1332C8.93281 95.3173 9.08204 95.4665 9.26614 95.4665H10.7328C10.9169 95.4665 11.0661 95.3173 11.0661 95.1332V93.6665C11.0661 93.4824 10.9169 93.3332 10.7328 93.3332H9.26614ZM13.1995 93.6665C13.1995 93.4824 13.3488 93.3332 13.5329 93.3332H14.9995C15.1836 93.3332 15.3329 93.4824 15.3329 93.6665V95.1332C15.3329 95.3173 15.1836 95.4665 14.9995 95.4665H13.5329C13.3488 95.4665 13.1995 95.3173 13.1995 95.1332V93.6665ZM17.7994 93.3332C17.6153 93.3332 17.4661 93.4824 17.4661 93.6665V95.1332C17.4661 95.3173 17.6153 95.4665 17.7994 95.4665H19.2661C19.4502 95.4665 19.5994 95.3173 19.5994 95.1332V93.6665C19.5994 93.4824 19.4502 93.3332 19.2661 93.3332H17.7994ZM21.7328 93.6665C21.7328 93.4824 21.8821 93.3332 22.0662 93.3332H23.5328C23.7169 93.3332 23.8661 93.4824 23.8661 93.6665V95.1332C23.8661 95.3173 23.7169 95.4665 23.5328 95.4665H22.0662C21.8821 95.4665 21.7328 95.3173 21.7328 95.1332V93.6665ZM26.3329 93.3332C26.1488 93.3332 25.9995 93.4824 25.9995 93.6665V95.1332C25.9995 95.3173 26.1488 95.4665 26.3329 95.4665H27.7995C27.9836 95.4665 28.1329 95.3173 28.1329 95.1332V93.6665C28.1329 93.4824 27.9836 93.3332 27.7995 93.3332H26.3329ZM30.2661 93.6665C30.2661 93.4824 30.4153 93.3332 30.5994 93.3332H32.0661C32.2502 93.3332 32.3994 93.4824 32.3994 93.6665V95.1332C32.3994 95.3173 32.2502 95.4665 32.0661 95.4665H30.5994C30.4153 95.4665 30.2661 95.3173 30.2661 95.1332V93.6665ZM34.8661 93.3332C34.682 93.3332 34.5328 93.4824 34.5328 93.6665V95.1332C34.5328 95.3173 34.682 95.4665 34.8661 95.4665H36.3328C36.5169 95.4665 36.6661 95.3173 36.6661 95.1332V93.6665C36.6661 93.4824 36.5169 93.3332 36.3328 93.3332H34.8661Z" fill="white" fill-opacity="0.5"/>
<mask id="path-21-inside-1" fill="white">
<path fill-rule="evenodd" clip-rule="evenodd" d="M14.2448 85.6338C13.6024 86.2191 13.1992 87.0624 13.1992 88C13.1992 89.7673 14.6319 91.2 16.3992 91.2C18.1665 91.2 19.5992 89.7673 19.5992 88C19.5992 87.0801 19.2111 86.2509 18.5897 85.6672"/>
</mask>
<path d="M13.7959 85.141C13.0206 85.8472 12.5326 86.8671 12.5326 88H13.8659C13.8659 87.2578 14.1842 86.5909 14.6938 86.1266L13.7959 85.141ZM12.5326 88C12.5326 90.1355 14.2637 91.8666 16.3992 91.8666V90.5333C15.0001 90.5333 13.8659 89.3991 13.8659 88H12.5326ZM16.3992 91.8666C18.5347 91.8666 20.2659 90.1355 20.2659 88H18.9326C18.9326 89.3991 17.7983 90.5333 16.3992 90.5333V91.8666ZM20.2659 88C20.2659 86.8885 19.7961 85.8858 19.0462 85.1813L18.1333 86.1531C18.6261 86.6161 18.9326 87.2717 18.9326 88H20.2659Z" fill="#D80915" mask="url(#path-21-inside-1)"/>
<rect x="15.334" y="86.9336" width="2.13333" height="4.26667" rx="0.666667" fill="#D80915"/>
</g>
</g>
<mask id="mask4" mask-type="alpha" maskUnits="userSpaceOnUse" x="0" y="36" width="32" height="32">
<circle cx="16" cy="52" r="16" fill="#C4C4C4"/>
</mask>
<g mask="url(#mask4)">
<rect x="-7.2793" y="35.3086" width="44.3" height="31.5" rx="1.75" fill="white" stroke="#F5F5F5" stroke-width="0.5"/>
<mask id="mask5" mask-type="alpha" maskUnits="userSpaceOnUse" x="-8" y="35" width="46" height="33">
<rect x="-7.2793" y="35.3086" width="44.3" height="31.5" rx="1.75" fill="white" stroke="white" stroke-width="0.5"/>
</mask>
<g mask="url(#mask5)">
<path fill-rule="evenodd" clip-rule="evenodd" d="M-7.5293 56.3923H37.2707V45.7256H-7.5293V56.3923Z" fill="#0C47B7"/>
<path fill-rule="evenodd" clip-rule="evenodd" d="M-7.5293 67.0583H37.2707V56.3916H-7.5293V67.0583Z" fill="#E53B35"/>
</g>
<rect x="-6" y="36" width="44.8" height="32" rx="2" fill="white"/>
<mask id="mask6" mask-type="alpha" maskUnits="userSpaceOnUse" x="-6" y="36" width="45" height="32">
<rect x="-6" y="36" width="44.8" height="32" rx="2" fill="white"/>
</mask>
<g mask="url(#mask6)">
<rect x="-6" y="36" width="44.8" height="32" fill="#0A17A7"/>
<path fill-rule="evenodd" clip-rule="evenodd" d="M-8.05159 32.9336L11.067 45.8293V33.8666H21.7337V45.8293L40.8523 32.9336L43.2382 36.4708L28.1224 46.6666H38.8004V57.3332H28.1224L43.2382 67.529L40.8523 71.0662L21.7337 58.1706V70.1332H11.067V58.1705L-8.05161 71.0662L-10.4375 67.529L4.67834 57.3332H-5.99964V46.6666H4.67833L-10.4375 36.4708L-8.05159 32.9336Z" fill="white"/>
<path d="M23.8691 46.1313L44.1337 32.7998" stroke="#DB1F35" stroke-width="0.666667" stroke-linecap="round"/>
<path d="M26.0195 57.9156L44.1857 70.1602" stroke="#DB1F35" stroke-width="0.666667" stroke-linecap="round"/>
<path d="M6.8082 46.0965L-12.1406 33.3262" stroke="#DB1F35" stroke-width="0.666667" stroke-linecap="round"/>
<path d="M8.86341 57.7674L-12.1406 71.6963" stroke="#DB1F35" stroke-width="0.666667" stroke-linecap="round"/>
<path fill-rule="evenodd" clip-rule="evenodd" d="M-6 55.2H13.2V68H19.6V55.2H38.8V48.8H19.6V36H13.2V48.8H-6V55.2Z" fill="#E6273E"/>
</g>
</g>
</svg>