<svg width="32" height="212" viewBox="0 0 32 212" fill="none" xmlns="http://www.w3.org/2000/svg">
<path d="M0 124C0 115.163 7.16344 108 16 108C24.8366 108 32 115.163 32 124C32 132.837 24.8366 140 16 140C7.16344 140 0 132.837 0 124Z" fill="url(#paint0_linear)"/>
<mask id="mask0" mask-type="alpha" maskUnits="userSpaceOnUse" x="0" y="108" width="32" height="32">
<path fill-rule="evenodd" clip-rule="evenodd" d="M0 124C0 115.163 7.16344 108 16 108C24.8366 108 32 115.163 32 124C32 132.837 24.8366 140 16 140C7.16344 140 0 132.837 0 124Z" fill="white"/>
</mask>
<g mask="url(#mask0)">
<path fill-rule="evenodd" clip-rule="evenodd" d="M16.0007 115.467C13.6832 115.467 13.3923 115.477 12.4821 115.518C11.5736 115.56 10.9535 115.704 10.4109 115.915C9.84969 116.133 9.37359 116.424 8.89928 116.899C8.42461 117.373 8.13305 117.849 7.91438 118.41C7.70282 118.953 7.55882 119.573 7.51793 120.481C7.47722 121.392 7.46655 121.683 7.46655 124C7.46655 126.318 7.47686 126.608 7.51811 127.518C7.55989 128.426 7.70371 129.046 7.91456 129.589C8.13269 130.15 8.42425 130.626 8.89875 131.101C9.37288 131.575 9.84898 131.868 10.4099 132.086C10.9528 132.297 11.5731 132.44 12.4814 132.482C13.3916 132.523 13.6823 132.534 15.9996 132.534C18.3173 132.534 18.6073 132.523 19.5175 132.482C20.426 132.44 21.0468 132.297 21.5897 132.086C22.1508 131.868 22.6262 131.575 23.1003 131.101C23.575 130.626 23.8665 130.15 24.0852 129.589C24.295 129.046 24.439 128.426 24.4817 127.518C24.5226 126.608 24.5332 126.318 24.5332 124C24.5332 121.683 24.5226 121.392 24.4817 120.481C24.439 119.573 24.295 118.953 24.0852 118.41C23.8665 117.849 23.575 117.373 23.1003 116.899C22.6256 116.424 22.151 116.132 21.5892 115.915C21.0452 115.704 20.4247 115.56 19.5163 115.518C18.606 115.477 18.3163 115.467 15.998 115.467H16.0007ZM15.7162 117.004H15.7163L16.0007 117.004C18.2792 117.004 18.5492 117.013 19.4489 117.054C20.281 117.092 20.7325 117.231 21.0333 117.347C21.4315 117.502 21.7155 117.687 22.0139 117.986C22.3126 118.284 22.4975 118.569 22.6525 118.967C22.7693 119.267 22.9085 119.719 22.9464 120.551C22.9873 121.451 22.9962 121.721 22.9962 123.998C22.9962 126.276 22.9873 126.546 22.9464 127.445C22.9084 128.277 22.7693 128.729 22.6525 129.029C22.4979 129.428 22.3126 129.711 22.0139 130.01C21.7153 130.308 21.4317 130.493 21.0333 130.648C20.7329 130.765 20.281 130.904 19.4489 130.942C18.5494 130.983 18.2792 130.992 16.0007 130.992C13.7221 130.992 13.4521 130.983 12.5525 130.942C11.7205 130.903 11.2689 130.764 10.968 130.648C10.5697 130.493 10.2853 130.308 9.98663 130.009C9.68796 129.711 9.50306 129.427 9.34804 129.029C9.23124 128.728 9.09204 128.277 9.05417 127.445C9.01328 126.545 9.0051 126.275 9.0051 123.996C9.0051 121.717 9.01328 121.448 9.05417 120.549C9.09222 119.717 9.23124 119.265 9.34804 118.964C9.50271 118.566 9.68796 118.282 9.98663 117.983C10.2853 117.684 10.5697 117.5 10.968 117.345C11.2688 117.227 11.7205 117.089 12.5525 117.05C13.3397 117.015 13.6448 117.004 15.2352 117.002V117.004C15.3838 117.004 15.5437 117.004 15.7162 117.004ZM19.5318 119.445C19.5318 118.88 19.9905 118.421 20.5558 118.421V118.421C21.1211 118.421 21.5798 118.88 21.5798 119.445C21.5798 120.01 21.1211 120.469 20.5558 120.469C19.9905 120.469 19.5318 120.01 19.5318 119.445ZM16.0004 119.618C13.5804 119.618 11.6183 121.58 11.6183 124C11.6183 126.42 13.5805 128.381 16.0006 128.381C18.4207 128.381 20.3822 126.42 20.3822 124C20.3822 121.58 18.4205 119.618 16.0004 119.618ZM18.8451 124C18.8451 122.429 17.5715 121.156 16.0006 121.156C14.4296 121.156 13.1562 122.429 13.1562 124C13.1562 125.571 14.4296 126.845 16.0006 126.845C17.5715 126.845 18.8451 125.571 18.8451 124Z" fill="white"/>
</g>
<path d="M0 160C0 151.163 7.16344 144 16 144C24.8366 144 32 151.163 32 160C32 168.837 24.8366 176 16 176C7.16344 176 0 168.837 0 160Z" fill="#1DA1F2"/>
<path d="M15.74 156.99L15.779 157.639L15.1287 157.56C12.7617 157.255 10.6937 156.222 8.93789 154.488L8.0795 153.627L7.8584 154.263C7.39018 155.679 7.68932 157.176 8.66477 158.182C9.18501 158.738 9.06795 158.817 8.17054 158.486C7.8584 158.381 7.58527 158.301 7.55926 158.341C7.46822 158.433 7.78036 159.638 8.02747 160.115C8.36563 160.777 9.05495 161.426 9.80929 161.81L10.4466 162.114L9.69224 162.128C8.9639 162.128 8.93789 162.141 9.01593 162.419C9.27605 163.28 10.3035 164.193 11.448 164.59L12.2544 164.868L11.5521 165.292C10.5116 165.901 9.28905 166.245 8.06649 166.272C7.48122 166.285 7 166.338 7 166.378C7 166.51 8.58673 167.252 9.51016 167.543C12.2804 168.404 15.5709 168.033 18.0421 166.563C19.7979 165.517 21.5537 163.438 22.3731 161.426C22.8153 160.353 23.2575 158.394 23.2575 157.454C23.2575 156.845 23.2965 156.765 24.0248 156.037C24.454 155.613 24.8572 155.15 24.9353 155.017C25.0653 154.766 25.0523 154.766 24.389 154.991C23.2835 155.388 23.1274 155.335 23.6737 154.739C24.0769 154.316 24.5581 153.548 24.5581 153.323C24.5581 153.283 24.363 153.349 24.1419 153.468C23.9078 153.601 23.3876 153.799 22.9974 153.918L22.295 154.143L21.6578 153.707C21.3066 153.468 20.8124 153.203 20.5522 153.124C19.8889 152.939 18.8745 152.965 18.2762 153.177C16.6504 153.773 15.623 155.309 15.74 156.99Z" fill="white"/>
<path d="M15.74 192.99L15.779 193.639L15.1287 193.56C12.7617 193.255 10.6937 192.222 8.93789 190.488L8.0795 189.627L7.8584 190.263C7.39018 191.679 7.68932 193.176 8.66477 194.182C9.18501 194.738 9.06795 194.817 8.17054 194.486C7.8584 194.381 7.58527 194.301 7.55926 194.341C7.46822 194.433 7.78036 195.638 8.02747 196.115C8.36563 196.777 9.05495 197.426 9.80929 197.81L10.4466 198.114L9.69224 198.128C8.9639 198.128 8.93789 198.141 9.01593 198.419C9.27605 199.28 10.3035 200.193 11.448 200.59L12.2544 200.868L11.5521 201.292C10.5116 201.901 9.28905 202.245 8.06649 202.272C7.48122 202.285 7 202.338 7 202.378C7 202.51 8.58673 203.252 9.51016 203.543C12.2804 204.404 15.5709 204.033 18.0421 202.563C19.7979 201.517 21.5537 199.438 22.3731 197.426C22.8153 196.353 23.2575 194.394 23.2575 193.454C23.2575 192.845 23.2965 192.765 24.0248 192.037C24.454 191.613 24.8572 191.15 24.9353 191.017C25.0653 190.766 25.0523 190.766 24.389 190.991C23.2835 191.388 23.1274 191.335 23.6737 190.739C24.0769 190.316 24.5581 189.548 24.5581 189.323C24.5581 189.283 24.363 189.349 24.1419 189.468C23.9078 189.601 23.3876 189.799 22.9974 189.918L22.295 190.143L21.6578 189.707C21.3066 189.468 20.8124 189.203 20.5522 189.124C19.8889 188.939 18.8745 188.965 18.2762 189.177C16.6504 189.773 15.623 191.309 15.74 192.99Z" fill="white"/>
<path d="M0 196C0 187.163 7.16344 180 16 180C24.8366 180 32 187.163 32 196C32 204.837 24.8366 212 16 212C7.16344 212 0 204.837 0 196Z" fill="#2A5EE8"/>
<path d="M17.9244 195.4C17.3234 195.4 16.8489 195.875 16.8489 196.467C16.8489 197.058 17.3339 197.533 17.9244 197.533C18.5255 197.533 19 197.058 19 196.467C19 195.875 18.5149 195.4 17.9244 195.4ZM14.0756 195.4C13.4745 195.4 13 195.875 13 196.467C13 197.058 13.4851 197.533 14.0756 197.533C14.6766 197.533 15.1511 197.058 15.1511 196.467C15.1617 195.875 14.6766 195.4 14.0756 195.4Z" fill="white"/>
<path d="M22.1176 189H9.87322C8.84066 189 8 189.742 8 190.654V201.466C8 202.378 8.84066 203.12 9.87322 203.12H20.2353L19.751 201.643L20.9206 202.596L22.0263 203.491L24 205V190.654C23.9909 189.742 23.1502 189 22.1176 189ZM18.5905 199.449C18.5905 199.449 18.2616 199.102 17.9874 198.803C19.1845 198.505 19.6413 197.851 19.6413 197.851C19.2667 198.069 18.9103 198.222 18.5905 198.327C18.1336 198.497 17.695 198.602 17.2656 198.674C16.3883 198.819 15.5842 198.779 14.8989 198.666C14.3781 198.577 13.9303 198.456 13.5557 198.319C13.3455 198.247 13.1171 198.158 12.8886 198.045C12.8612 198.029 12.8338 198.021 12.8064 198.005C12.7881 197.996 12.779 197.988 12.7698 197.988C12.6054 197.908 12.514 197.851 12.514 197.851C12.514 197.851 12.9526 198.489 14.1131 198.795C13.8389 199.102 13.5008 199.457 13.5008 199.457C11.4814 199.4 10.7139 198.239 10.7139 198.239C10.7139 195.665 12.0297 193.575 12.0297 193.575C13.3455 192.712 14.5882 192.736 14.5882 192.736L14.6796 192.833C13.0348 193.244 12.2856 193.882 12.2856 193.882C12.2856 193.882 12.4866 193.785 12.8247 193.656C13.8024 193.276 14.5791 193.18 14.8989 193.147C14.9537 193.139 14.9994 193.131 15.0542 193.131C15.6116 193.067 16.2421 193.05 16.9 193.115C17.7681 193.204 18.7002 193.43 19.6505 193.882C19.6505 193.882 18.9286 193.276 17.3752 192.865L17.5031 192.736C17.5031 192.736 18.755 192.712 20.0617 193.575C20.0617 193.575 21.3775 195.665 21.3775 198.239C21.3775 198.23 20.6099 199.392 18.5905 199.449Z" fill="white"/>
<path d="M32 88C32 79.1625 24.8375 72 16 72C7.16253 72 0 79.1625 0 88C0 95.9875 5.85 102.606 13.5 103.806V92.625H9.43747V88H13.5V84.475C13.5 80.4656 15.8875 78.25 19.5437 78.25C21.2937 78.25 23.125 78.5625 23.125 78.5625V82.5H21.1063C19.1187 82.5 18.5 83.7344 18.5 85V88H22.9375L22.2281 92.625H18.5V103.806C26.15 102.606 32 95.9875 32 88Z" fill="#1877F2"/>
<path d="M22.2282 92.625L22.9375 88H18.5V85C18.5 83.7344 19.1188 82.5 21.1063 82.5H23.125V78.5625C23.125 78.5625 21.2938 78.25 19.5438 78.25C15.8876 78.25 13.5 80.4656 13.5 84.475V88H9.4375V92.625H13.5V103.806C14.3156 103.934 15.15 104 16 104C16.85 104 17.6844 103.934 18.5 103.806V92.625H22.2282Z" fill="white"/>
<path d="M0 52C0 43.1634 7.16344 36 16 36C24.8366 36 32 43.1634 32 52C32 60.8366 24.8366 68 16 68C7.16344 68 0 60.8366 0 52Z" fill="#FF0000"/>
<path d="M24.1766 48.0488C23.9803 47.2948 23.402 46.701 22.6676 46.4995C21.3368 46.1333 15.9999 46.1333 15.9999 46.1333C15.9999 46.1333 10.663 46.1333 9.33206 46.4995C8.5977 46.701 8.01938 47.2948 7.82311 48.0488C7.46655 49.4153 7.46655 52.2666 7.46655 52.2666C7.46655 52.2666 7.46655 55.1178 7.82311 56.4845C8.01938 57.2385 8.5977 57.8322 9.33206 58.0338C10.663 58.4 15.9999 58.4 15.9999 58.4C15.9999 58.4 21.3368 58.4 22.6676 58.0338C23.402 57.8322 23.9803 57.2385 24.1766 56.4845C24.5332 55.1178 24.5332 52.2666 24.5332 52.2666C24.5332 52.2666 24.5332 49.4153 24.1766 48.0488Z" fill="white"/>
<path d="M14.3999 55.2V49.8667L18.6666 52.5335L14.3999 55.2Z" fill="#FF0000"/>
<path d="M16 32C24.8365 32 32 24.8365 32 16C32 7.16347 24.8365 0 16 0C7.16347 0 0 7.16347 0 16C0 24.8365 7.16347 32 16 32Z" fill="url(#paint1_linear)"/>
<path d="M5.95875 16.7827C7.82914 15.7524 9.91701 14.8926 11.8678 14.0283C15.2239 12.6127 18.5934 11.2216 21.9969 9.92657C22.6591 9.7059 23.8489 9.4901 23.9655 10.4714C23.9017 11.8605 23.6389 13.2414 23.4586 14.6224C23.0011 17.6592 22.4723 20.6856 21.9566 23.7124C21.7789 24.7206 20.5159 25.2425 19.7078 24.5973C17.7657 23.2854 15.8086 21.9864 13.8913 20.6441C13.2632 20.0059 13.8456 19.0894 14.4065 18.6337C16.0061 17.0573 17.7025 15.718 19.2185 14.0601C19.6275 13.0726 18.4192 13.9048 18.0207 14.1598C15.8308 15.6689 13.6945 17.2701 11.3857 18.5964C10.2064 19.2456 8.83187 18.6908 7.65307 18.3285C6.59613 17.8909 5.04731 17.45 5.95865 16.7828L5.95875 16.7827Z" fill="white"/>
<defs>
<linearGradient id="paint0_linear" x1="27.5" y1="112" x2="2.5" y2="136.5" gradientUnits="userSpaceOnUse">
<stop stop-color="#BB00AE"/>
<stop offset="1" stop-color="#F30006"/>
</linearGradient>
<linearGradient id="paint1_linear" x1="12.0019" y1="1.3344" x2="4.00187" y2="20" gradientUnits="userSpaceOnUse">
<stop stop-color="#37AEE2"/>
<stop offset="1" stop-color="#1E96C8"/>
</linearGradient>
</defs>
</svg>