<svg width="64" height="33" viewBox="0 0 64 33" fill="none" xmlns="http://www.w3.org/2000/svg">
<path d="M25.1863 7L17.0569 13.0152L18.5686 9.47024L25.1863 7Z" fill="#E17726" stroke="#E17726" stroke-width="0.25" stroke-linecap="round" stroke-linejoin="round"/>
<path d="M6.43481 7L14.4919 13.0713L13.0525 9.47024L6.43481 7Z" fill="#E27625" stroke="#E27625" stroke-width="0.25" stroke-linecap="round" stroke-linejoin="round"/>
<path d="M22.2592 20.9473L20.0962 24.2516L24.7278 25.5269L26.0546 21.0195L22.2592 20.9473Z" fill="#E27625" stroke="#E27625" stroke-width="0.25" stroke-linecap="round" stroke-linejoin="round"/>
<path d="M5.57446 21.0195L6.89317 25.5269L11.5167 24.2516L9.36175 20.9473L5.57446 21.0195Z" fill="#E27625" stroke="#E27625" stroke-width="0.25" stroke-linecap="round" stroke-linejoin="round"/>
<path d="M11.2672 15.365L9.98071 17.306L14.564 17.5145L14.4113 12.582L11.2672 15.365Z" fill="#E27625" stroke="#E27625" stroke-width="0.25" stroke-linecap="round" stroke-linejoin="round"/>
<path d="M20.3534 15.365L17.1612 12.5259L17.0566 17.5145L21.6399 17.306L20.3534 15.365Z" fill="#E27625" stroke="#E27625" stroke-width="0.25" stroke-linecap="round" stroke-linejoin="round"/>
<path d="M11.5166 24.2513L14.2907 22.912L11.9026 21.0513L11.5166 24.2513Z" fill="#E27625" stroke="#E27625" stroke-width="0.25" stroke-linecap="round" stroke-linejoin="round"/>
<path d="M17.3303 22.912L20.0964 24.2513L19.7184 21.0513L17.3303 22.912Z" fill="#E27625" stroke="#E27625" stroke-width="0.25" stroke-linecap="round" stroke-linejoin="round"/>
<path d="M20.0964 24.252L17.3303 22.9126L17.5554 24.7091L17.5313 25.4711L20.0964 24.252Z" fill="#D5BFB2" stroke="#D5BFB2" stroke-width="0.25" stroke-linecap="round" stroke-linejoin="round"/>
<path d="M11.5166 24.252L14.0897 25.4711L14.0736 24.7091L14.2907 22.9126L11.5166 24.252Z" fill="#D5BFB2" stroke="#D5BFB2" stroke-width="0.25" stroke-linecap="round" stroke-linejoin="round"/>
<path d="M14.1379 19.8644L11.8381 19.1907L13.4624 18.4448L14.1379 19.8644Z" fill="#233447" stroke="#233447" stroke-width="0.25" stroke-linecap="round" stroke-linejoin="round"/>
<path d="M17.4832 19.8644L18.1586 18.4448L19.7909 19.1907L17.4832 19.8644Z" fill="#233447" stroke="#233447" stroke-width="0.25" stroke-linecap="round" stroke-linejoin="round"/>
<path d="M11.5165 24.2516L11.9186 20.9473L9.36157 21.0195L11.5165 24.2516Z" fill="#CC6228" stroke="#CC6228" stroke-width="0.25" stroke-linecap="round" stroke-linejoin="round"/>
<path d="M19.7021 20.9473L20.0962 24.2516L22.2592 21.0195L19.7021 20.9473Z" fill="#CC6228" stroke="#CC6228" stroke-width="0.25" stroke-linecap="round" stroke-linejoin="round"/>
<path d="M21.6399 17.3062L17.0566 17.5147L17.4828 19.8647L18.1583 18.445L19.7906 19.1909L21.6399 17.3062Z" fill="#CC6228" stroke="#CC6228" stroke-width="0.25" stroke-linecap="round" stroke-linejoin="round"/>
<path d="M11.8382 19.1909L13.4624 18.445L14.1379 19.8647L14.564 17.5147L9.98071 17.3062L11.8382 19.1909Z" fill="#CC6228" stroke="#CC6228" stroke-width="0.25" stroke-linecap="round" stroke-linejoin="round"/>
<path d="M9.98096 17.3062L11.9028 21.0516L11.8384 19.1909L9.98096 17.3062Z" fill="#E27525" stroke="#E27525" stroke-width="0.25" stroke-linecap="round" stroke-linejoin="round"/>
<path d="M19.7909 19.1909L19.7185 21.0516L21.6403 17.3062L19.7909 19.1909Z" fill="#E27525" stroke="#E27525" stroke-width="0.25" stroke-linecap="round" stroke-linejoin="round"/>
<path d="M14.5644 17.5142L14.1382 19.8641L14.6769 22.6391L14.7976 18.9819L14.5644 17.5142Z" fill="#E27525" stroke="#E27525" stroke-width="0.25" stroke-linecap="round" stroke-linejoin="round"/>
<path d="M17.057 17.5142L16.8318 18.9739L16.9444 22.6391L17.4831 19.8641L17.057 17.5142Z" fill="#E27525" stroke="#E27525" stroke-width="0.25" stroke-linecap="round" stroke-linejoin="round"/>
<path d="M17.4831 19.8642L16.9443 22.6391L17.3303 22.9118L19.7185 21.0511L19.7908 19.1904L17.4831 19.8642Z" fill="#F5841F" stroke="#F5841F" stroke-width="0.25" stroke-linecap="round" stroke-linejoin="round"/>
<path d="M11.8381 19.1904L11.9025 21.0511L14.2906 22.9118L14.6766 22.6391L14.1379 19.8642L11.8381 19.1904Z" fill="#F5841F" stroke="#F5841F" stroke-width="0.25" stroke-linecap="round" stroke-linejoin="round"/>
<path d="M17.5312 25.4706L17.5553 24.7086L17.3463 24.5322H14.2747L14.0736 24.7086L14.0897 25.4706L11.5166 24.2515L12.4172 24.9893L14.2425 26.2485H17.3704L19.2037 24.9893L20.0963 24.2515L17.5312 25.4706Z" fill="#C0AC9D" stroke="#C0AC9D" stroke-width="0.25" stroke-linecap="round" stroke-linejoin="round"/>
<path d="M17.3303 22.9123L16.9443 22.6396H14.6768L14.2909 22.9123L14.0737 24.7089L14.2748 24.5324H17.3464L17.5555 24.7089L17.3303 22.9123Z" fill="#161616" stroke="#161616" stroke-width="0.25" stroke-linecap="round" stroke-linejoin="round"/>
<path d="M25.532 13.4082L26.2156 10.0878L25.1863 7L17.3303 12.8147L20.3537 15.3651L24.6234 16.6083L25.5642 15.5095L25.1542 15.2127L25.8054 14.6193L25.3069 14.2343L25.9582 13.737L25.532 13.4082Z" fill="#763E1A" stroke="#763E1A" stroke-width="0.25" stroke-linecap="round" stroke-linejoin="round"/>
<path d="M5.40552 10.0878L6.09704 13.4082L5.65479 13.737L6.31414 14.2343L5.81561 14.6193L6.46692 15.2127L6.05683 15.5095L6.99763 16.6083L11.2674 15.3651L14.2907 12.8147L6.43476 7L5.40552 10.0878Z" fill="#763E1A" stroke="#763E1A" stroke-width="0.25" stroke-linecap="round" stroke-linejoin="round"/>
<path d="M24.6235 16.6083L20.3537 15.3652L21.6403 17.3062L19.7185 21.0516L22.2594 21.0195H26.0548L24.6235 16.6083Z" fill="#F5841F" stroke="#F5841F" stroke-width="0.25" stroke-linecap="round" stroke-linejoin="round"/>
<path d="M11.2674 15.3652L6.99771 16.6083L5.57446 21.0195H9.36174L11.9027 21.0516L9.9809 17.3062L11.2674 15.3652Z" fill="#F5841F" stroke="#F5841F" stroke-width="0.25" stroke-linecap="round" stroke-linejoin="round"/>
<path d="M17.0569 17.515L17.3303 12.8151L18.5686 9.4707H13.0525L14.2908 12.8151L14.5642 17.515L14.6687 18.9907L14.6768 22.64H16.9443L16.9523 18.9907L17.0569 17.515Z" fill="#F5841F" stroke="#F5841F" stroke-width="0.25" stroke-linecap="round" stroke-linejoin="round"/>
<path fill-rule="evenodd" clip-rule="evenodd" d="M48 7L42.4742 10.1812L44.5058 11.3553L47.9991 9.34982L51.4942 11.3553L53.5258 10.1812L48 7ZM51.4934 13.0181L53.5258 14.193V16.5437L50.0316 18.55V22.5626L48 23.7375L45.9684 22.5626V18.55L42.4742 16.5437V14.193L44.5058 13.0181L47.9991 15.0244L51.4942 13.0181H51.4934ZM53.5258 18.2056V20.5563L51.4942 21.7312V19.3805L53.5258 18.2064V18.2056ZM51.4742 23.3931L54.9676 21.3868V17.375L57 16.1993V22.5626L51.4742 25.7438V23.3931ZM54.9676 13.3624L52.9369 12.1875L54.9684 11.0117L57 12.1875V14.5382L54.9684 15.7131L54.9676 13.3624ZM45.9693 26.5952V24.2436L48.0009 25.4185L50.0324 24.2436V26.5943L48.0009 27.7692L45.9693 26.5943V26.5952ZM44.504 21.7303L42.4742 20.5563V18.2056L44.5058 19.3805V21.7312L44.504 21.7303ZM47.9991 13.3616L45.9676 12.1875L47.9991 11.0117L50.0307 12.1875L47.9991 13.3624V13.3616ZM43.0631 12.1875L41.0316 13.3624V15.7131L39 14.5382V12.1875L41.0316 11.0117L43.0631 12.1875ZM39 16.1993L41.0316 17.375V21.3868L44.5249 23.3931V25.7438L39.0009 22.5626V16.1993H39Z" fill="#F0B90B"/>
</svg>
